HIERARCHY
ROOT root
{
	OFFSET	0	13.1	24.9
	CHANNELS 6  Xposition Yposition Zposition Xrotation Yrotation Zrotation
	JOINT spine_1
	{
		OFFSET	0	9.99999	0
		CHANNELS 3  Xrotation Yrotation Zrotation
		JOINT spine_2
		{
			OFFSET	0	112	-10
			CHANNELS 3  Xrotation Yrotation Zrotation
			JOINT spine_3
			{
				OFFSET	0	206.5	19.3
				CHANNELS 3  Xrotation Yrotation Zrotation
				JOINT spine_4
				{
					OFFSET	0	110.4	14.6
					CHANNELS 3  Xrotation Yrotation Zrotation
					JOINT neck_1
					{
						OFFSET	0	71.8	-50.3
						CHANNELS 3  Xrotation Yrotation Zrotation
						JOINT neck_2
						{
							OFFSET	0	86.2	-25.8
							CHANNELS 3  Xrotation Yrotation Zrotation
							JOINT head_ee
							{
								OFFSET	0	179.8	-8.7
								CHANNELS 3  Xrotation Yrotation Zrotation
								End Site
								{
									OFFSET	1	0	0
								}
							}
						}
					}
					JOINT left_clavicle
					{
						OFFSET	-43.2	22.4	-70.8
						CHANNELS 3  Xrotation Yrotation Zrotation
						JOINT left_shoulder
						{
							OFFSET	-93.9	-5.79999	48.7
							CHANNELS 3  Xrotation Yrotation Zrotation
							JOINT left_elbow
							{
								OFFSET	-291.4	-30.8	15.2
								CHANNELS 3  Xrotation Yrotation Zrotation
								JOINT left_lowarm_twist
								{
									OFFSET	-110.7	-3.89999	13.6
									CHANNELS 3  Xrotation Yrotation Zrotation
									JOINT left_hand
									{
										OFFSET	-110.7	-3.89999	13.6
										CHANNELS 3  Xrotation Yrotation Zrotation
										JOINT left_ee
										{
											OFFSET	-80.8	-5.10001	12.1
											CHANNELS 3  Xrotation Yrotation Zrotation
											End Site
											{
												OFFSET	1	0	0
											}
										}
									}
								}
							}
						}
					}
					JOINT right_clavicle
					{
						OFFSET	43.2	22.4	-70.8
						CHANNELS 3  Xrotation Yrotation Zrotation
						JOINT right_shoulder
						{
							OFFSET	93.9	-5.79999	48.7
							CHANNELS 3  Xrotation Yrotation Zrotation
							JOINT right_elbow
							{
								OFFSET	291.4	-30.8	15.2
								CHANNELS 3  Xrotation Yrotation Zrotation
								JOINT right_lowarm_twist
								{
									OFFSET	110.7	-3.89999	13.6
									CHANNELS 3  Xrotation Yrotation Zrotation
									JOINT right_hand
									{
										OFFSET	110.7	-3.89999	13.6
										CHANNELS 3  Xrotation Yrotation Zrotation
										JOINT right_ee
										{
											OFFSET	80.8	-5.10001	12.1
											CHANNELS 3  Xrotation Yrotation Zrotation
											End Site
											{
												OFFSET	1	0	0
											}
										}
									}
								}
							}
						}
					}
				}
			}
		}
	}
	JOINT left_hip
	{
		OFFSET	-82.8	-127.5	0.300001
		CHANNELS 3  Xrotation Yrotation Zrotation
		JOINT left_knee
		{
			OFFSET	-28.2	-396.7	2.2
			CHANNELS 3  Xrotation Yrotation Zrotation
			JOINT left_ankle
			{
				OFFSET	-11.7	-411.3	35.4
				CHANNELS 3  Xrotation Yrotation Zrotation
				JOINT left_toes
				{
					OFFSET	0	-60	-88.6
					CHANNELS 3  Xrotation Yrotation Zrotation
					JOINT left_foot_ee
					{
						OFFSET	-22.5	-16.5	-42.2
						CHANNELS 3  Xrotation Yrotation Zrotation
						End Site
						{
							OFFSET	1	0	0
						}
					}
				}
			}
		}
	}
	JOINT right_hip
	{
		OFFSET	82.8	-127.5	0.300001
		CHANNELS 3  Xrotation Yrotation Zrotation
		JOINT right_knee
		{
			OFFSET	28.2	-396.7	2.2
			CHANNELS 3  Xrotation Yrotation Zrotation
			JOINT right_ankle
			{
				OFFSET	11.7	-411.3	35.4
				CHANNELS 3  Xrotation Yrotation Zrotation
				JOINT right_toes
				{
					OFFSET	0	-60	-88.6
					CHANNELS 3  Xrotation Yrotation Zrotation
					JOINT right_foot_ee
					{
						OFFSET	22.5	-16.5	-42.2
						CHANNELS 3  Xrotation Yrotation Zrotation
						End Site
						{
							OFFSET	1	0	0
						}
					}
				}
			}
		}
	}
}
MOTION
Frames: 6
Frame Time: 0.02
1372.05 701.618 -1475.22 -7.70917774763 25.1473366374 5.01926556727 1.39653 -0.0806496 -0.695102 1.3968 -0.0362561 -0.698825 1.39728 0.0945551 -0.693348 1.39661 -0.0161301 -0.699579 3.5654 8.42977 3.323 3.70317 11.7809 4.26081 -0.0 0.0 -0.0 7.65062 2.77352 14.8394 10.6221 -36.3614 52.9296 1.45594 -35.7981 0.470254 -23.738 -1.41003 2.66588 -3.14928 -28.0488 -33.4683 -0.0 0.0 -0.0 7.08232 2.2927 -13.7481 -42.7281 30.986 -55.8583 0.539111 14.9526 -0.0707489 -13.7015 0.678945 -1.61082 0.691454 10.1447 -0.356934 0.0 0.0 0.0 -1.90853 -13.4512 9.16912 -4.66131 0.163659 0.696455 40.8881 18.3898 -5.07355 39.8406 -0.0 -0.0 -0.0 0.0 -0.0 35.5528 20.0419 -8.34343 4.32671 0.202201 0.632895 -7.79764 13.7642 -1.25356 3.1784 -0.0 -0.0 0.0 0.0 0.0 
1342.06613887 703.006 -1510.32941749 -6.73857567317 26.3868824769 3.96680599185 1.09052 -0.269857 -0.58548 1.09068 -0.232055 -0.601464 1.09319 -0.112599 -0.634767 1.09269 -0.211434 -0.609019 6.49044 7.90277 1.2266 6.67458 12.2993 1.69001 -0.0 0.0 -0.0 7.65825 -0.996424 14.9113 5.7717 -30.0391 52.6317 1.41129 -34.9559 0.444401 -20.0867 -1.12269 2.29689 -3.33252 -27.602 -34.7016 -0.0 0.0 -0.0 7.73343 2.81903 -15.069 -41.0704 33.1136 -54.9538 0.548742 15.2075 -0.0732548 -13.9602 0.695415 -1.63954 0.777483 7.73261 -1.9674 0.0 0.0 0.0 -3.19 -12.9367 9.6251 -9.24953 0.268915 1.39251 40.0032 18.5468 -4.99668 40.1468 -0.0 -0.0 -0.0 0.0 -0.0 35.4448 20.5425 -8.64997 -5.16551 -0.177949 -0.772514 -13.1802 12.5459 -2.11659 4.73135 -0.0 -0.0 0.0 0.0 0.0 
1342.60018154 703.006 -1510.7785618 -6.6892903592 25.5268610867 3.85420709912 1.09052 -0.269857 -0.58548 1.09068 -0.232055 -0.601464 1.09319 -0.112599 -0.634767 1.09269 -0.211434 -0.609019 6.49044 7.90277 1.2266 6.67458 12.2993 1.69001 -0.0 0.0 -0.0 7.65825 -0.996424 14.9113 5.7717 -30.0391 52.6317 1.41129 -34.9559 0.444401 -20.0867 -1.12269 2.29689 -3.33252 -27.602 -34.7016 -0.0 0.0 -0.0 7.73343 2.81903 -15.069 -41.0704 33.1136 -54.9538 0.548742 15.2075 -0.0732548 -13.9602 0.695415 -1.63954 0.777483 7.73261 -1.9674 0.0 0.0 0.0 -3.19 -12.9367 9.6251 -9.24953 0.268915 1.39251 40.0032 18.5468 -4.99668 40.1468 -0.0 -0.0 -0.0 0.0 -0.0 35.4448 20.5425 -8.64997 -5.16551 -0.177949 -0.772514 -13.1802 12.5459 -2.11659 4.73135 -0.0 -0.0 0.0 0.0 0.0 
1330.28331183 714.517 -1526.94939489 -5.51475069207 24.6039522707 2.63014613125 0.795709 -0.0682355 -0.275028 0.79575 -0.0505966 -0.278812 0.796012 0.00519758 -0.283318 0.795902 -0.0396123 -0.280583 6.91785 6.8611 0.490108 7.0791 11.1401 0.776439 -0.0 0.0 -0.0 7.84449 -5.1683 15.285 0.574692 -25.8759 51.1656 1.3329 -33.4342 0.400339 -17.8829 -0.960885 2.06567 -3.3117 -27.548 -34.5274 -0.0 0.0 -0.0 8.37092 4.82849 -16.3831 -39.8435 33.4168 -53.2409 0.53638 14.8802 -0.070046 -13.2018 0.647499 -1.55513 1.084 7.34644 -4.20379 0.0 0.0 0.0 -3.17123 -10.8794 10.5664 -11.8816 0.304033 1.79481 37.6027 17.7145 -4.75517 39.9124 -0.0 -0.0 -0.0 0.0 -0.0 35.5721 21.2578 -10.5025 -9.34372 -0.27049 -1.40687 -19.6579 6.76797 -3.06611 5.89442 -0.0 -0.0 0.0 0.0 0.0 
1288.31036237 721.741 -1576.36023333 -3.0720496509 24.5655797995 0.712932727097 0.174228 0.235196 -0.208856 0.174218 0.24801 -0.193466 0.173353 0.282717 -0.137873 0.173419 0.257394 -0.180793 4.47789 5.51926 -0.530468 4.59731 9.9677 -0.306166 -0.0 0.0 -0.0 8.5603 -9.03793 16.7358 -8.29179 -18.6221 54.3793 1.12824 -29.1998 0.293892 -14.3839 -0.72267 1.68642 -3.36419 -25.7984 -34.3612 -0.0 0.0 -0.0 9.85532 8.51175 -19.5318 -37.3604 36.4764 -48.808 0.54751 15.1749 -0.0729319 -12.1442 0.582562 -1.4364 1.54377 6.19824 -7.81063 0.0 0.0 0.0 -1.34423 -7.60849 10.9172 -19.613 0.300043 2.98014 36.8948 15.431 -4.65001 40.1442 -0.0 -0.0 -0.0 0.0 -0.0 32.374 21.6568 -10.7811 -14.6452 -0.320981 -2.21845 -22.8161 -4.28636 -3.44191 5.04589 -0.0 -0.0 0.0 0.0 0.0 
1290.74469889 721.741 -1578.32733107 -3.03980946997 23.2018201045 0.633309688107 0.174228 0.235196 -0.208856 0.174218 0.24801 -0.193466 0.173353 0.282717 -0.137873 0.173419 0.257394 -0.180793 4.47789 5.51926 -0.530468 4.59731 9.9677 -0.306166 -0.0 0.0 -0.0 8.5603 -9.03793 16.7358 -8.29179 -18.6221 54.3793 1.12824 -29.1998 0.293892 -14.3839 -0.72267 1.68642 -3.36419 -25.7984 -34.3612 -0.0 0.0 -0.0 9.85532 8.51175 -19.5318 -37.3604 36.4764 -48.808 0.54751 15.1749 -0.0729319 -12.1442 0.582562 -1.4364 1.54377 6.19824 -7.81063 0.0 0.0 0.0 -1.34423 -7.60849 10.9172 -19.613 0.300043 2.98014 36.8948 15.431 -4.65001 40.1442 -0.0 -0.0 -0.0 0.0 -0.0 32.374 21.6568 -10.7811 -14.6452 -0.320981 -2.21845 -22.8161 -4.28636 -3.44191 5.04589 -0.0 -0.0 0.0 0.0 0.0 
